<?xml version="1.0" encoding="utf-8"?>
<!-- Generator: Adobe Illustrator 16.0.0, SVG Export Plug-In . SVG Version: 6.00 Build 0)  -->
<!DOCTYPE svg PUBLIC "-//W3C//DTD SVG 1.1//EN" "http://www.w3.org/Graphics/SVG/1.1/DTD/svg11.dtd">
<svg version="1.1" id="Layer_1" xmlns="http://www.w3.org/2000/svg" xmlns:xlink="http://www.w3.org/1999/xlink" x="0px" y="0px"
	 width="600px" height="600px" viewBox="0 0 600 600" enable-background="new 0 0 600 600" xml:space="preserve">
<g>
	<circle fill="#DFEDF9" cx="2.5" cy="74.25" r="2.5"/>
	<circle fill="#DFEDF9" cx="2.5" cy="92.125" r="2.5"/>
	<circle fill="#DFEDF9" cx="2.5" cy="110" r="2.5"/>
	<circle fill="#DFEDF9" cx="2.5" cy="127.875" r="2.5"/>
	<circle fill="#DFEDF9" cx="2.5" cy="145.75" r="2.5"/>
	<circle fill="#DFEDF9" cx="20.375" cy="74.25" r="2.5"/>
	<circle fill="#DFEDF9" cx="20.375" cy="92.125" r="2.5"/>
	<circle fill="#DFEDF9" cx="20.375" cy="110" r="2.5"/>
	<circle fill="#DFEDF9" cx="20.375" cy="127.875" r="2.5"/>
	<circle fill="#DFEDF9" cx="20.375" cy="145.75" r="2.5"/>
	<circle fill="#DFEDF9" cx="38.25" cy="74.25" r="2.5"/>
	<circle fill="#DFEDF9" cx="38.25" cy="92.125" r="2.5"/>
	<circle fill="#DFEDF9" cx="38.25" cy="110" r="2.5"/>
	<circle fill="#DFEDF9" cx="38.25" cy="127.875" r="2.5"/>
	<circle fill="#DFEDF9" cx="38.25" cy="145.75" r="2.5"/>
	<circle fill="#DFEDF9" cx="56.125" cy="74.25" r="2.5"/>
	<circle fill="#DFEDF9" cx="56.125" cy="92.125" r="2.5"/>
	<circle fill="#DFEDF9" cx="56.125" cy="110" r="2.5"/>
	<circle fill="#DFEDF9" cx="56.125" cy="127.875" r="2.5"/>
	<circle fill="#DFEDF9" cx="56.125" cy="145.75" r="2.5"/>
	<circle fill="#DFEDF9" cx="74" cy="74.25" r="2.5"/>
	<circle fill="#DFEDF9" cx="74" cy="92.125" r="2.5"/>
	<circle fill="#DFEDF9" cx="74" cy="110" r="2.5"/>
	<circle fill="#DFEDF9" cx="74" cy="127.875" r="2.5"/>
	<circle fill="#DFEDF9" cx="74" cy="145.75" r="2.5"/>
</g>
<path opacity="0.5" fill="#DFECF9" enable-background="new    " d="M600,398.371c-20.729-7.317-43.109-9.683-65.45-0.43
	c-51.86,21.479-238.138,72.473-245.267-160.802C288.91,224.971,453.067,81.534,600,109.626V398.371z"/>
</svg>
