<?xml version="1.0" encoding="utf-8"?>
<!-- Generator: Adobe Illustrator 16.0.0, SVG Export Plug-In . SVG Version: 6.00 Build 0)  -->
<!DOCTYPE svg PUBLIC "-//W3C//DTD SVG 1.1//EN" "http://www.w3.org/Graphics/SVG/1.1/DTD/svg11.dtd">
<svg version="1.1" id="Layer_1" xmlns="http://www.w3.org/2000/svg" xmlns:xlink="http://www.w3.org/1999/xlink" x="0px" y="0px"
	 width="600px" height="600px" viewBox="0 0 600 600" enable-background="new 0 0 600 600" xml:space="preserve">
<g>
	<circle fill="#DFEDF9" cx="32.5" cy="134.25" r="2.5"/>
	<circle fill="#DFEDF9" cx="32.5" cy="152.125" r="2.5"/>
	<circle fill="#DFEDF9" cx="32.5" cy="170" r="2.5"/>
	<circle fill="#DFEDF9" cx="32.5" cy="187.875" r="2.5"/>
	<circle fill="#DFEDF9" cx="32.5" cy="205.75" r="2.5"/>
	<circle fill="#DFEDF9" cx="50.375" cy="134.25" r="2.5"/>
	<circle fill="#DFEDF9" cx="50.375" cy="152.125" r="2.5"/>
	<circle fill="#DFEDF9" cx="50.375" cy="170" r="2.5"/>
	<circle fill="#DFEDF9" cx="50.375" cy="187.875" r="2.5"/>
	<circle fill="#DFEDF9" cx="50.375" cy="205.75" r="2.5"/>
	<circle fill="#DFEDF9" cx="68.25" cy="134.25" r="2.5"/>
	<circle fill="#DFEDF9" cx="68.25" cy="152.125" r="2.5"/>
	<circle fill="#DFEDF9" cx="68.25" cy="170" r="2.5"/>
	<circle fill="#DFEDF9" cx="68.25" cy="187.875" r="2.5"/>
	<circle fill="#DFEDF9" cx="68.25" cy="205.75" r="2.5"/>
	<circle fill="#DFEDF9" cx="86.125" cy="134.25" r="2.5"/>
	<circle fill="#DFEDF9" cx="86.125" cy="152.125" r="2.5"/>
	<circle fill="#DFEDF9" cx="86.125" cy="170" r="2.5"/>
	<circle fill="#DFEDF9" cx="86.125" cy="187.875" r="2.5"/>
	<circle fill="#DFEDF9" cx="86.125" cy="205.75" r="2.5"/>
	<circle fill="#DFEDF9" cx="104" cy="134.25" r="2.5"/>
	<circle fill="#DFEDF9" cx="104" cy="152.125" r="2.5"/>
	<circle fill="#DFEDF9" cx="104" cy="170" r="2.5"/>
	<circle fill="#DFEDF9" cx="104" cy="187.875" r="2.5"/>
	<circle fill="#DFEDF9" cx="104" cy="205.75" r="2.5"/>
</g>
<path opacity="0.5" fill="#DFECF9" enable-background="new    " d="M600,403.155c-15.68-5.535-32.609-7.324-49.509-0.325
	c-39.229,16.247-180.134,54.82-185.526-121.635C364.683,271.99,488.855,163.49,600,184.74V403.155z"/>
</svg>
