<?xml version="1.0" encoding="utf-8"?>
<!-- Generator: Adobe Illustrator 16.0.0, SVG Export Plug-In . SVG Version: 6.00 Build 0)  -->
<!DOCTYPE svg PUBLIC "-//W3C//DTD SVG 1.1//EN" "http://www.w3.org/Graphics/SVG/1.1/DTD/svg11.dtd">
<svg version="1.1" id="Layer_1" xmlns="http://www.w3.org/2000/svg" xmlns:xlink="http://www.w3.org/1999/xlink" x="0px" y="0px"
	 width="600px" height="600px" viewBox="0 0 600 600" enable-background="new 0 0 600 600" xml:space="preserve">
<g>
	<circle fill="#DFEDF9" cx="51.752" cy="183.502" r="1.752"/>
	<circle fill="#DFEDF9" cx="51.752" cy="196.032" r="1.753"/>
	<circle fill="#DFEDF9" cx="51.752" cy="208.563" r="1.752"/>
	<circle fill="#DFEDF9" cx="51.752" cy="221.092" r="1.752"/>
	<circle fill="#DFEDF9" cx="51.752" cy="233.623" r="1.752"/>
	<circle fill="#DFEDF9" cx="64.283" cy="183.502" r="1.752"/>
	<circle fill="#DFEDF9" cx="64.283" cy="196.032" r="1.753"/>
	<circle fill="#DFEDF9" cx="64.283" cy="208.563" r="1.752"/>
	<circle fill="#DFEDF9" cx="64.283" cy="221.092" r="1.752"/>
	<circle fill="#DFEDF9" cx="64.283" cy="233.623" r="1.752"/>
	<circle fill="#DFEDF9" cx="76.813" cy="183.502" r="1.752"/>
	<circle fill="#DFEDF9" cx="76.813" cy="196.032" r="1.753"/>
	<circle fill="#DFEDF9" cx="76.813" cy="208.563" r="1.752"/>
	<circle fill="#DFEDF9" cx="76.813" cy="221.092" r="1.752"/>
	<circle fill="#DFEDF9" cx="76.813" cy="233.623" r="1.752"/>
	<circle fill="#DFEDF9" cx="89.342" cy="183.502" r="1.752"/>
	<circle fill="#DFEDF9" cx="89.342" cy="196.032" r="1.753"/>
	<circle fill="#DFEDF9" cx="89.342" cy="208.563" r="1.752"/>
	<circle fill="#DFEDF9" cx="89.342" cy="221.092" r="1.752"/>
	<circle fill="#DFEDF9" cx="89.342" cy="233.623" r="1.752"/>
	<circle fill="#DFEDF9" cx="101.873" cy="183.502" r="1.752"/>
	<circle fill="#DFEDF9" cx="101.873" cy="196.032" r="1.753"/>
	<circle fill="#DFEDF9" cx="101.873" cy="208.563" r="1.752"/>
	<circle fill="#DFEDF9" cx="101.873" cy="221.092" r="1.752"/>
	<circle fill="#DFEDF9" cx="101.873" cy="233.623" r="1.752"/>
</g>
<path opacity="0.5" fill="#DFECF9" enable-background="new    " d="M600,403.155c-15.68-5.535-32.609-7.324-49.509-0.325
	c-39.229,16.247-180.134,54.82-185.526-121.635C364.683,271.99,488.855,163.49,600,184.74V403.155z"/>
</svg>
