<?xml version="1.0" encoding="utf-8"?>
<!-- Generator: Adobe Illustrator 16.0.0, SVG Export Plug-In . SVG Version: 6.00 Build 0)  -->
<!DOCTYPE svg PUBLIC "-//W3C//DTD SVG 1.1//EN" "http://www.w3.org/Graphics/SVG/1.1/DTD/svg11.dtd">
<svg version="1.1" id="Layer_1" xmlns="http://www.w3.org/2000/svg" xmlns:xlink="http://www.w3.org/1999/xlink" x="0px" y="0px"
	 width="600px" height="600px" viewBox="0 0 600 600" enable-background="new 0 0 600 600" xml:space="preserve">
<g>
	<circle fill="#DFEDF9" cx="419.5" cy="264.25" r="2.5"/>
	<circle fill="#DFEDF9" cx="419.5" cy="282.125" r="2.5"/>
	<circle fill="#DFEDF9" cx="419.5" cy="300" r="2.5"/>
	<circle fill="#DFEDF9" cx="419.5" cy="317.875" r="2.5"/>
	<circle fill="#DFEDF9" cx="419.5" cy="335.75" r="2.5"/>
	<circle fill="#DFEDF9" cx="437.375" cy="264.25" r="2.5"/>
	<circle fill="#DFEDF9" cx="437.375" cy="282.125" r="2.5"/>
	<circle fill="#DFEDF9" cx="437.375" cy="300" r="2.5"/>
	<circle fill="#DFEDF9" cx="437.375" cy="317.875" r="2.5"/>
	<circle fill="#DFEDF9" cx="437.375" cy="335.75" r="2.5"/>
	<circle fill="#DFEDF9" cx="455.25" cy="264.25" r="2.5"/>
	<circle fill="#DFEDF9" cx="455.25" cy="282.125" r="2.5"/>
	<circle fill="#DFEDF9" cx="455.25" cy="300" r="2.5"/>
	<circle fill="#DFEDF9" cx="455.25" cy="317.875" r="2.5"/>
	<circle fill="#DFEDF9" cx="455.25" cy="335.75" r="2.5"/>
	<circle fill="#DFEDF9" cx="473.125" cy="264.25" r="2.5"/>
	<circle fill="#DFEDF9" cx="473.125" cy="282.125" r="2.5"/>
	<circle fill="#DFEDF9" cx="473.125" cy="300" r="2.5"/>
	<circle fill="#DFEDF9" cx="473.125" cy="317.875" r="2.5"/>
	<circle fill="#DFEDF9" cx="473.125" cy="335.75" r="2.5"/>
	<circle fill="#DFEDF9" cx="491" cy="264.25" r="2.5"/>
	<circle fill="#DFEDF9" cx="491" cy="282.125" r="2.5"/>
	<circle fill="#DFEDF9" cx="491" cy="300" r="2.5"/>
	<circle fill="#DFEDF9" cx="491" cy="317.875" r="2.5"/>
	<circle fill="#DFEDF9" cx="491" cy="335.75" r="2.5"/>
</g>
<path opacity="0.5" fill="#DFECF9" enable-background="new    " d="M0,196.845c15.68,5.535,32.61,7.324,49.509,0.325
	c39.229-16.247,180.134-54.82,185.527,121.635C235.317,328.01,111.144,436.51,0,415.26V196.845z"/>
</svg>
