<?xml version="1.0" encoding="utf-8"?>
<!-- Generator: Adobe Illustrator 16.0.0, SVG Export Plug-In . SVG Version: 6.00 Build 0)  -->
<!DOCTYPE svg PUBLIC "-//W3C//DTD SVG 1.1//EN" "http://www.w3.org/Graphics/SVG/1.1/DTD/svg11.dtd">
<svg version="1.1" id="Layer_1" xmlns="http://www.w3.org/2000/svg" xmlns:xlink="http://www.w3.org/1999/xlink" x="0px" y="0px"
	 width="600px" height="600px" viewBox="0 0 600 600" enable-background="new 0 0 600 600" xml:space="preserve">
<g>
	<circle fill="#DFEDF9" cx="491.752" cy="183.502" r="1.752"/>
	<circle fill="#DFEDF9" cx="491.752" cy="196.032" r="1.753"/>
	<circle fill="#DFEDF9" cx="491.752" cy="208.563" r="1.752"/>
	<circle fill="#DFEDF9" cx="491.752" cy="221.092" r="1.752"/>
	<circle fill="#DFEDF9" cx="491.752" cy="233.623" r="1.752"/>
	<circle fill="#DFEDF9" cx="504.283" cy="183.502" r="1.752"/>
	<circle fill="#DFEDF9" cx="504.283" cy="196.032" r="1.753"/>
	<circle fill="#DFEDF9" cx="504.283" cy="208.563" r="1.752"/>
	<circle fill="#DFEDF9" cx="504.283" cy="221.092" r="1.752"/>
	<circle fill="#DFEDF9" cx="504.283" cy="233.623" r="1.752"/>
	<circle fill="#DFEDF9" cx="516.813" cy="183.502" r="1.752"/>
	<circle fill="#DFEDF9" cx="516.813" cy="196.032" r="1.753"/>
	<circle fill="#DFEDF9" cx="516.813" cy="208.563" r="1.752"/>
	<circle fill="#DFEDF9" cx="516.813" cy="221.092" r="1.752"/>
	<circle fill="#DFEDF9" cx="516.813" cy="233.623" r="1.752"/>
	<circle fill="#DFEDF9" cx="529.342" cy="183.502" r="1.752"/>
	<circle fill="#DFEDF9" cx="529.342" cy="196.032" r="1.753"/>
	<circle fill="#DFEDF9" cx="529.342" cy="208.563" r="1.752"/>
	<circle fill="#DFEDF9" cx="529.342" cy="221.092" r="1.752"/>
	<circle fill="#DFEDF9" cx="529.342" cy="233.623" r="1.752"/>
	<circle fill="#DFEDF9" cx="541.873" cy="183.502" r="1.752"/>
	<circle fill="#DFEDF9" cx="541.873" cy="196.032" r="1.753"/>
	<circle fill="#DFEDF9" cx="541.873" cy="208.563" r="1.752"/>
	<circle fill="#DFEDF9" cx="541.873" cy="221.092" r="1.752"/>
	<circle fill="#DFEDF9" cx="541.873" cy="233.623" r="1.752"/>
</g>
<path opacity="0.5" fill="#DFECF9" enable-background="new    " d="M0,196.845c15.68,5.535,28.5,35.025,68.5,22.495
	c34-35.837,208-129.84,166.535,99.465C235.317,328.01,111.144,436.51,0,415.26V196.845z"/>
</svg>
