<?xml version="1.0" encoding="utf-8"?>
<!-- Generator: Adobe Illustrator 16.0.0, SVG Export Plug-In . SVG Version: 6.00 Build 0)  -->
<!DOCTYPE svg PUBLIC "-//W3C//DTD SVG 1.1//EN" "http://www.w3.org/Graphics/SVG/1.1/DTD/svg11.dtd">
<svg version="1.1" id="Layer_1" xmlns="http://www.w3.org/2000/svg" xmlns:xlink="http://www.w3.org/1999/xlink" x="0px" y="0px"
	 width="600px" height="600px" viewBox="0 0 600 600" enable-background="new 0 0 600 600" xml:space="preserve">
<g>
	<circle fill="#DFEDF9" cx="532" cy="268.5" r="5"/>
	<circle fill="#DFEDF9" cx="532" cy="284.25" r="5"/>
	<circle fill="#DFEDF9" cx="532" cy="300" r="5"/>
	<circle fill="#DFEDF9" cx="532" cy="315.75" r="5"/>
	<circle fill="#DFEDF9" cx="532" cy="331.5" r="5"/>
	<circle fill="#DFEDF9" cx="547.75" cy="268.5" r="5"/>
	<circle fill="#DFEDF9" cx="547.75" cy="284.25" r="5"/>
	<circle fill="#DFEDF9" cx="547.75" cy="300" r="5"/>
	<circle fill="#DFEDF9" cx="547.75" cy="315.75" r="5"/>
	<circle fill="#DFEDF9" cx="547.75" cy="331.5" r="5"/>
	<circle fill="#DFEDF9" cx="563.5" cy="268.5" r="5"/>
	<circle fill="#DFEDF9" cx="563.5" cy="284.25" r="5"/>
	<circle fill="#DFEDF9" cx="563.5" cy="300" r="5"/>
	<circle fill="#DFEDF9" cx="563.5" cy="315.75" r="5"/>
	<circle fill="#DFEDF9" cx="563.5" cy="331.5" r="5"/>
	<circle fill="#DFEDF9" cx="579.25" cy="268.5" r="5"/>
	<circle fill="#DFEDF9" cx="579.25" cy="284.25" r="5"/>
	<circle fill="#DFEDF9" cx="579.25" cy="300" r="5"/>
	<circle fill="#DFEDF9" cx="579.25" cy="315.75" r="5"/>
	<circle fill="#DFEDF9" cx="579.25" cy="331.5" r="5"/>
	<circle fill="#DFEDF9" cx="595" cy="268.5" r="5"/>
	<circle fill="#DFEDF9" cx="595" cy="284.25" r="5"/>
	<circle fill="#DFEDF9" cx="595" cy="300" r="5"/>
	<circle fill="#DFEDF9" cx="595" cy="315.75" r="5"/>
	<circle fill="#DFEDF9" cx="595" cy="331.5" r="5"/>
</g>
<path opacity="0.5" fill="#DFECF9" enable-background="new    " d="M0,138.911c24.486,8.644,50.924,11.438,77.314,0.508
	c61.259-25.372,281.299-85.608,289.721,189.946C367.476,343.74,173.564,513.176,0,479.991V138.911z"/>
</svg>
