<?xml version="1.0" encoding="utf-8"?>
<!-- Generator: Adobe Illustrator 16.0.0, SVG Export Plug-In . SVG Version: 6.00 Build 0)  -->
<!DOCTYPE svg PUBLIC "-//W3C//DTD SVG 1.1//EN" "http://www.w3.org/Graphics/SVG/1.1/DTD/svg11.dtd">
<svg version="1.1" id="Layer_1" xmlns="http://www.w3.org/2000/svg" xmlns:xlink="http://www.w3.org/1999/xlink" x="0px" y="0px"
	 width="600px" height="600px" viewBox="0 0 600 600" enable-background="new 0 0 600 600" xml:space="preserve">
<g>
	<circle fill="#DFECF8" cx="24.998" cy="25.749" r="19.248"/>
	<circle fill="#DFECF8" cx="24.998" cy="163.374" r="19.248"/>
	<circle fill="#DFECF8" cx="24.998" cy="301" r="19.248"/>
	<circle fill="#DFECF8" cx="24.998" cy="438.626" r="19.248"/>
	<circle fill="#DFECF8" cx="24.998" cy="576.252" r="19.248"/>
	<circle fill="#DFECF8" cx="162.624" cy="25.749" r="19.248"/>
	<circle fill="#DFECF8" cx="162.624" cy="163.374" r="19.248"/>
	<circle fill="#DFECF8" cx="162.624" cy="301" r="19.248"/>
	<circle fill="#DFECF8" cx="162.624" cy="438.626" r="19.248"/>
	<circle fill="#DFECF8" cx="162.624" cy="576.252" r="19.248"/>
	<circle fill="#DFECF8" cx="300.25" cy="25.749" r="19.248"/>
	<circle fill="#DFECF8" cx="300.25" cy="163.374" r="19.248"/>
	<circle fill="#DFECF8" cx="300.25" cy="301" r="19.248"/>
	<circle fill="#DFECF8" cx="300.25" cy="438.626" r="19.248"/>
	<circle fill="#DFECF8" cx="300.25" cy="576.252" r="19.248"/>
	<circle fill="#DFECF8" cx="437.875" cy="25.749" r="19.249"/>
	<circle fill="#DFECF8" cx="437.875" cy="163.374" r="19.249"/>
	<circle fill="#DFECF8" cx="437.875" cy="301" r="19.249"/>
	<circle fill="#DFECF8" cx="437.875" cy="438.626" r="19.249"/>
	<circle fill="#DFECF8" cx="437.875" cy="576.252" r="19.249"/>
	<circle fill="#DFECF8" cx="575.501" cy="25.749" r="19.249"/>
	<circle fill="#DFECF8" cx="575.501" cy="163.374" r="19.249"/>
	<circle fill="#DFECF8" cx="575.501" cy="301" r="19.249"/>
	<circle fill="#DFECF8" cx="575.501" cy="438.626" r="19.249"/>
	<circle fill="#DFECF8" cx="575.501" cy="576.252" r="19.249"/>
</g>
</svg>
